<svg width="300" height="300" viewBox="0 0 300 300" fill="currentColor" xmlns="http://www.w3.org/2000/svg">
<path d="M35.17 204.58C29.14 200.66 28.42 197.44 31.7 191.3C34.62 185.83 36.99 180.01 40.4 174.88C42.25 172.09 45.77 170.39 48.9 172.3C48.9 169.44 48.75 166.64 48.98 163.87C49.06 162.88 49.89 161.7 50.72 161.07C55.65 157.39 60.84 154.04 65.63 150.18C68.83 147.61 71.36 144.23 74.45 141.49C77.65 138.65 81.18 136.17 84.51 133.48C86.16 132.15 87.7 130.69 89.59 129.67C92.92 127.23 96.26 124.8 99.58 122.35C100.24 121.86 100.85 120.85 101.49 120.84C110.2 120.71 117.45 114.98 125.85 114.37C129.91 114.08 134.75 114.22 137.61 118.85C138.6 120.45 140.81 121.26 142.36 122.56C143.6 123.6 145.27 124.62 145.73 125.99C148.97 135.74 152.07 145.54 154.91 155.41C155.45 157.3 154.62 159.57 154.46 161.67C153.7 171.34 155.36 180.52 159.8 189.14C165.28 186.98 168.49 180.24 174.93 181.96C177.2 178.09 179.07 173.97 181.79 170.54C184.75 166.81 188.68 163.87 191.89 160.31C195.07 156.79 197.27 152.11 200.97 149.41C206.99 145.02 209.02 138.19 213.27 132.81C215.97 129.39 219.6 126.72 222.73 123.64C223.77 122.62 224.56 121.35 225.76 119.83C224.5 119.66 224.03 119.48 223.94 119.6C220.08 124.67 213.39 123.54 208.55 126.62C205.82 128.36 196.34 125.18 194.36 122.49C191.91 119.18 192.58 116.67 196.6 115.21C201.31 113.5 206.15 112.16 210.87 110.47C212.39 109.93 213.91 109.01 215.06 107.88C217.27 105.73 219.26 104.1 222.82 104.8C224.11 105.05 226.28 102.93 227.41 101.41C228.88 99.44 229.74 98.16 232.86 98.64C235.53 99.05 238.5 96.93 241.42 96.55C244.86 96.1 248.75 95.39 251.72 96.58C253.46 97.28 254.05 101.4 254.71 104.1C256.02 109.4 253.51 115.31 257.72 120.29C259.09 121.91 259.14 124.75 259.55 127.07C261.24 136.57 269.88 143.19 270.39 153.08C270.53 155.86 269.56 158.7 269.1 161.51C266.35 160.99 262.85 161.36 260.97 159.79C252.9 153.07 245.44 145.61 242.79 134.92C241.84 131.1 241.7 127.07 241.19 123.14C240.57 122.85 239.94 122.56 239.32 122.27C237.5 124.36 235.46 126.3 233.91 128.58C231.13 132.64 230.46 138.23 224.93 140.28C224.13 140.58 223.64 142.15 223.32 143.23C221.65 148.8 216.87 151.47 212.82 154.89C211.69 155.84 211.24 157.55 210.31 158.79C206.3 164.13 203.07 170.56 197.92 174.39C193.74 177.49 192.75 183.85 186.7 184.67C186.04 184.76 185.47 186.11 184.99 186.96C182.91 190.64 180.44 193.56 176.08 195.02C173.03 196.04 170.28 198.28 167.71 200.36C163.59 203.69 160.17 203.92 155.21 201.11C150.45 198.41 146.84 194.85 144.72 189.72C143.95 187.86 142.47 186.32 141.48 184.54C140.85 183.41 140.21 182.15 140.09 180.9C139.38 173.81 139.24 166.63 138.12 159.62C136.8 151.36 134.72 143.22 132.88 135.04C131.59 129.29 128.15 128.15 123.3 130.97C120.09 132.83 116.33 133.97 112.67 134.78C107.03 136.03 102.47 138.4 99.84 143.79C99.46 144.58 98.68 145.71 98.03 145.75C89.67 146.27 85.7 153.04 80.38 157.9C78.34 159.77 76.03 161.35 73.8 163.01C69.64 166.09 65.45 169.13 61.28 172.2C60.9 172.48 60.52 172.81 60.24 173.18C56.93 177.55 53.68 181.97 50.28 186.27C49.78 186.9 48.67 189.5 47.63 186.43C46.79 186.96 45.17 187.57 45.21 188C46.03 196.01 41.04 200.42 35.14 204.58H35.17Z" fill="white"/>
</svg>
